# xmcd
#
# Track frame offsets: 
#        150
#        21375
#        44053
#        65933
#        82126
#        95438
#        112833
#        123754
#        140241
#        154496
#        172085
#        184435
#        193372
#        206912
#        236709
#        247867
#        274511
#        288198
#        303123
#        318728
#        338849
#
# Disc length: 4771 seconds
#
# Revision: 5
# Processed by: cddbd v1.5.2PL0 Copyright (c) Steve Scherf et al.
# Submitted via: ExactAudioCopy v1.3
#
DISCID=4e12a115
DTITLE=Various Artist - Akella Presents - vol. 10 - Americana  CD1
DYEAR=2013
DGENRE=Americana
TTITLE0=HANK SHIZZOE - Being There With You
TTITLE1=MARK KNOPFLER - The Trawlerman's Song
TTITLE2=MICK MARTIN - Wonderful World
TTITLE3=BIG HOUSE - Cold Outside
TTITLE4=SHAVER - New York City
TTITLE5=LYNYRD SKYNYRD - Saturday Night Special
TTITLE6=GURF MORLIX - Baby Can I Crawl Back To You
TTITLE7=GREG HARRIS - Valley Way
TTITLE8=The NOTTING HILLBILLIES - One Way Gal
TTITLE9=VINCE GILL - Billy Paul
TTITLE10=R.J.MISCHO - Old Nightcat
TTITLE11=J.J.CALE - Hold On
TTITLE12=JIMMY NAIL - Once Upon a Time
TTITLE13=BILLY C.FARLOW and BLEU JACKSON - Blue Highway
TTITLE14=SEASICK STEVE - My Home (Blue Eyes)
TTITLE15=DIRE STRAITS - You and Your Friend
TTITLE16=JOHN FOGERTY - I Will Walk with You
TTITLE17=MATT SMITH - Ashes In The Wind
TTITLE18=CHRIS WHITLEY - Poison Girl
TTITLE19=TONY JOE WHITE - Ice Cream Man
TTITLE20=J.J.CALE - Friday
EXTD=
EXTT0=
EXTT1=
EXTT2=
EXTT3=
EXTT4=
EXTT5=
EXTT6=
EXTT7=
EXTT8=
EXTT9=
EXTT10=
EXTT11=
EXTT12=
EXTT13=
EXTT14=
EXTT15=
EXTT16=
EXTT17=
EXTT18=
EXTT19=
EXTT20=
PLAYORDER=
